# xmcd
#
# Track frame offsets:
#	150
#	17977
#	33517
#	51132
#	64927
#	83332
#	101705
#	116092
#	129167
#	143580
#	160440
#	177225
#	192337
#	207577
#
# Disc length: 2999 seconds
# Revision: 3
# Processed by: cddbd v1.5.2PL0 Copyright (c) Steve Scherf et al.
# Submitted via: dBpowerAMP V12.0
#
DISCID=c30bb50e
DTITLE=Collin Raye - Direct Hits
DYEAR=1997
DGENRE=Country
TTITLE0=Little Rock
TTITLE1=I Think About You
TTITLE2=Not That Different
TTITLE3=That's My Story
TTITLE4=If I Were You
TTITLE5=One Boy, One Girl
TTITLE6=In This Life
TTITLE7=My Kind Of Girl
TTITLE8=That Was A River
TTITLE9=What The Heart Wants
TTITLE10=The Gift
TTITLE11=Open Arms
TTITLE12=Little Red Rodeo
TTITLE13=Love, Me
EXTD=
EXTT0=
EXTT1=
EXTT2=
EXTT3=
EXTT4=
EXTT5=
EXTT6=
EXTT7=
EXTT8=
EXTT9=
EXTT10=
EXTT11=
EXTT12=
EXTT13=
PLAYORDER=
